<svg xmlns="http://www.w3.org/2000/svg" width="564.008" height="165" viewBox="0 0 564.008 165">
  <g id="blue_logo" data-name="blue logo" transform="translate(-503 -353)">
    <g id="Group_10625" data-name="Group 10625" transform="translate(503 353)">
      <path id="Path_736" data-name="Path 736" d="M36.685,67.718V47.229c0-5.3.341-8.312.982-8.959.662-.672,3.6-1,8.823-1h72.025c5.223,0,8.161.325,8.822,1,.637.646.982,3.66.982,8.959V67.663a.056.056,0,0,1-.055.056H71.444a.056.056,0,0,0-.055.056L92.359,83.79,71.389,101.211a.057.057,0,0,0,.055.056h75.148A18.551,18.551,0,0,0,165,82.575V39.263a38.138,38.138,0,0,0-11.33-27.736A36.958,36.958,0,0,0,126.355,0H38.645A36.945,36.945,0,0,0,11.33,11.531,38.12,38.12,0,0,0,0,39.263v86.47a38.137,38.137,0,0,0,11.33,27.736A36.945,36.945,0,0,0,38.645,165h107.34c.856-.745,19.011-17.506,19.011-18.341s-18.083-19.21-18.353-18.936H46.49c-5.223,0-8.161-.325-8.823-1-.637-.646-.982-3.634-.982-8.958V67.718Z" fill="#0097a7"/>
      <path id="Path_737" data-name="Path 737" d="M73.368,29.73c.013.162-56.821,0-56.872.056a.056.056,0,0,0-.055.056L37.412,45.858,16.441,63.279a.057.057,0,0,0,.055.056H91.645a18.551,18.551,0,0,0,18.408-18.692V11.368s-.687,6.189-14.424,15.49C90.675,30.205,73.368,29.73,73.368,29.73Z" transform="translate(54.948 37.992)" fill="#33b1a1"/>
    </g>
    <path id="Path_808" data-name="Path 808" d="M52.136-80.85H5.88V0H52.136V-16.17H24.3V-32.438H50.96v-16.17H24.3V-64.68H52.136Zm6.958,55.762c0,14.7,10.29,26.558,24.99,26.558a22.267,22.267,0,0,0,16.464-7.154h.2V0h17.15V-84.28H100.548v38.808c-4.116-4.018-9.7-6.272-16.464-6.272C69.384-51.744,59.094-39.788,59.094-25.088Zm18.424,0a11.515,11.515,0,0,1,11.76-11.858A11.493,11.493,0,0,1,100.94-25.088c0,6.86-4.9,11.76-11.662,11.76C82.222-13.328,77.518-18.228,77.518-25.088Zm68.5-25.186H128.674v28.126c0,16.856,8.428,23.618,27.244,23.618s27.244-6.762,27.244-23.618V-50.274H165.816v23.912c0,9.9-2.646,13.72-9.9,13.72s-9.9-3.822-9.9-13.72Zm96.53,0H192.668v13.23h20.776L188.552,0H240.59V-13.23H217.658Zm22.736,0H247.94v28.126c0,16.856,8.428,23.618,27.244,23.618s27.244-6.762,27.244-23.618V-50.274H285.082v23.912c0,9.9-2.646,13.72-9.9,13.72s-9.9-3.822-9.9-13.72ZM372.008-25.186c0-14.7-10.29-26.558-24.99-26.558a22.267,22.267,0,0,0-16.464,7.154h-.2v-5.684h-17.15V25.48h17.346V-4.8c4.116,4.018,9.7,6.272,16.464,6.272C361.718,1.47,372.008-10.486,372.008-25.186Zm-18.424,0a11.515,11.515,0,0,1-11.76,11.858,11.493,11.493,0,0,1-11.662-11.858c0-6.86,4.9-11.76,11.662-11.76C348.88-36.946,353.584-32.046,353.584-25.186Z" transform="translate(695 484)" fill="#0097a7"/>
  </g>
</svg>
