<svg xmlns="http://www.w3.org/2000/svg" width="193.168" height="37.495" viewBox="0 0 193.168 37.495"><path d="M175.062-1812.505a2.059,2.059,0,0,1-.8-.162,2.082,2.082,0,0,1-.655-.442,2.083,2.083,0,0,1-.442-.655,2.06,2.06,0,0,1-.162-.8v-33.371a2.06,2.06,0,0,1,.162-.8,2.082,2.082,0,0,1,.442-.655,2.084,2.084,0,0,1,.655-.442,2.061,2.061,0,0,1,.8-.162h33.371a2.061,2.061,0,0,1,.8.162,2.084,2.084,0,0,1,.655.442,2.082,2.082,0,0,1,.442.655,2.06,2.06,0,0,1,.162.8v33.371a2.06,2.06,0,0,1-.162.8,2.083,2.083,0,0,1-.442.655,2.082,2.082,0,0,1-.655.442,2.059,2.059,0,0,1-.8.162Zm17.152-7.358h4.978s.093.007.252.007a6.905,6.905,0,0,0,3.583-1.019c1.817-1.157,2.826-3.158,3-5.951a4.666,4.666,0,0,0-.82-3.272,5.012,5.012,0,0,0-2.255-1.537h0a1.609,1.609,0,0,0,.288-.056,4.357,4.357,0,0,0,.6-.206,4.941,4.941,0,0,0,.779-.417,4.989,4.989,0,0,0,.833-.688,6.224,6.224,0,0,0,1.544-4.712c-.058-1.859-.129-4.175-3.522-4.932.008.051-1.679,4.936-1.751,5.143a7.945,7.945,0,0,1,.044,1.313,5.446,5.446,0,0,1-.169,1.139,2.63,2.63,0,0,1-.494,1.015,1.619,1.619,0,0,1-.517.41,1.746,1.746,0,0,1-.721.173c-.709.024-1.4.037-2.042.037-1.1,0-1.706-.037-1.713-.037l-.464,4.051h3.544a.8.8,0,0,1,.082,0,2.215,2.215,0,0,1,.6.087,1.65,1.65,0,0,1,.776.473,2.264,2.264,0,0,1,.438,1.805,3.934,3.934,0,0,1-.369,1.384,2.081,2.081,0,0,1-.592.73,1.682,1.682,0,0,1-.582.285,1.35,1.35,0,0,1-.337.049h-4.364Zm-13.754-17.807h8.649l-2.785,17.807h5.442l2.827-17.807h5.315l1.772-4.894H179.388Zm181.795,15.953a3.588,3.588,0,0,1-2.632-1.094,3.588,3.588,0,0,1-1.094-2.632v-16.74h3.537v4.806h6.1v3.537h-6.1v7.641a1.907,1.907,0,0,0,.095.85,1.907,1.907,0,0,0,.85.094h5.157v3.537Zm-18.225,0a3.589,3.589,0,0,1-2.632-1.094,3.588,3.588,0,0,1-1.094-2.632v-8.208a3.589,3.589,0,0,1,1.094-2.633,3.588,3.588,0,0,1,2.632-1.093h8.451a3.588,3.588,0,0,1,2.633,1.093,3.589,3.589,0,0,1,1.093,2.633v8.208a3.589,3.589,0,0,1-1.093,2.632,3.589,3.589,0,0,1-2.633,1.094Zm-.094-12.028a1.907,1.907,0,0,0-.095.85v6.7a1.907,1.907,0,0,0,.095.85,1.907,1.907,0,0,0,.85.094h6.939a1.907,1.907,0,0,0,.85-.094,1.907,1.907,0,0,0,.095-.85v-6.7a1.906,1.906,0,0,0-.095-.85,1.907,1.907,0,0,0-.85-.094h-6.939A1.907,1.907,0,0,0,341.935-1833.747Zm-25.88,12.028v-19.44h14.9a3.611,3.611,0,0,1,2.646,1.107,3.611,3.611,0,0,1,1.107,2.646v3.807a4.1,4.1,0,0,1-.054.675,2.479,2.479,0,0,1-.189.621,6.253,6.253,0,0,1,.743,1.3,3.462,3.462,0,0,1,.283,1.35v4.185a3.611,3.611,0,0,1-1.107,2.646,3.642,3.642,0,0,1-2.673,1.107Zm3.659-8.005a1.908,1.908,0,0,0-.094.85v2.619a1.908,1.908,0,0,0,.094.851,1.908,1.908,0,0,0,.85.094h10.4a1.915,1.915,0,0,0,.837-.094q.108-.094.108-.851v-2.619q0-.756-.108-.85a1.915,1.915,0,0,0-.837-.094h-10.4A1.908,1.908,0,0,0,319.714-1829.724Zm0-7.749a1.908,1.908,0,0,0-.094.851v2.268a1.907,1.907,0,0,0,.094.85,1.9,1.9,0,0,0,.85.095h9.612q.756,0,.837-.095a2.2,2.2,0,0,0,.081-.85v-2.268a2.2,2.2,0,0,0-.081-.851q-.081-.094-.837-.094h-9.612A1.908,1.908,0,0,0,319.714-1837.473Zm-18.751,15.755a3.589,3.589,0,0,1-2.633-1.094,3.588,3.588,0,0,1-1.094-2.632v-.594h3.537v.162a.879.879,0,0,0,.094.526.879.879,0,0,0,.527.094h7.587a.878.878,0,0,0,.526-.094.878.878,0,0,0,.095-.526v-1.269a.878.878,0,0,0-.095-.526.878.878,0,0,0-.526-.094h-8.019a3.567,3.567,0,0,1-2.633-1.107,3.6,3.6,0,0,1-1.094-2.619v-2.16a3.589,3.589,0,0,1,1.094-2.633,3.588,3.588,0,0,1,2.633-1.093h8.451a3.633,3.633,0,0,1,2.646,1.093,3.567,3.567,0,0,1,1.107,2.633v.594H309.6v-.162a.878.878,0,0,0-.095-.526.878.878,0,0,0-.526-.094h-7.587a.879.879,0,0,0-.527.094.879.879,0,0,0-.094.526v1.269a.879.879,0,0,0,.094.527.879.879,0,0,0,.527.094h8.019a3.611,3.611,0,0,1,2.646,1.107,3.58,3.58,0,0,1,1.107,2.619v2.16a3.567,3.567,0,0,1-1.107,2.632,3.633,3.633,0,0,1-2.646,1.094Zm-18.09,0v-11.934a3.589,3.589,0,0,1,1.094-2.633,3.588,3.588,0,0,1,2.632-1.093h8.694v3.537h-7.938a1.907,1.907,0,0,0-.85.094,1.906,1.906,0,0,0-.095.85v11.178Zm-14.391,0a3.589,3.589,0,0,1-2.633-1.094,3.588,3.588,0,0,1-1.094-2.632v-8.208a3.589,3.589,0,0,1,1.094-2.633,3.588,3.588,0,0,1,2.633-1.093h8.451a3.588,3.588,0,0,1,2.633,1.093,3.589,3.589,0,0,1,1.094,2.633v8.208a3.588,3.588,0,0,1-1.094,2.632,3.589,3.589,0,0,1-2.633,1.094Zm-.095-12.028a1.907,1.907,0,0,0-.095.85v6.7a1.907,1.907,0,0,0,.095.85,1.907,1.907,0,0,0,.85.094h6.939a1.908,1.908,0,0,0,.851-.094,1.908,1.908,0,0,0,.094-.85v-6.7a1.907,1.907,0,0,0-.094-.85,1.908,1.908,0,0,0-.851-.094h-6.939A1.907,1.907,0,0,0,268.387-1833.747Zm-11.677,12.028a3.589,3.589,0,0,1-2.633-1.094,3.588,3.588,0,0,1-1.094-2.632v-16.74h3.537v4.806h6.1v3.537h-6.1v7.641a1.908,1.908,0,0,0,.094.85,1.907,1.907,0,0,0,.85.094h5.157v3.537Zm-18.171,0a3.589,3.589,0,0,1-2.633-1.094,3.588,3.588,0,0,1-1.094-2.632v-11.934h3.537v11.178a1.907,1.907,0,0,0,.094.85,1.908,1.908,0,0,0,.851.094h6.939a1.908,1.908,0,0,0,.851-.094,1.907,1.907,0,0,0,.094-.85v-11.178h3.537v11.934a3.588,3.588,0,0,1-1.094,2.632,3.589,3.589,0,0,1-2.633,1.094Zm-16.335,0v-15.849h-7.938v-3.591h19.44v3.591h-7.911v15.849Z" transform="translate(-173 1850)" fill="#880e4f"/></svg>